HIERARCHY
ROOT joint_0
{
	OFFSET 0.000000 0.000000 0.000000
	CHANNELS 6 Xposition Yposition Zposition Zrotation Yrotation Xrotation 
	JOINT joint_1
	{
		OFFSET 0.587158 0.057678 95.682007
		CHANNELS 3 Zrotation Yrotation Xrotation
		JOINT joint_2
		{
			OFFSET -7.116699 -0.219910 87.157959
			CHANNELS 3 Zrotation Yrotation Xrotation
			JOINT joint_3
			{
				OFFSET -5.892822 -0.290222 87.151001
				CHANNELS 3 Zrotation Yrotation Xrotation
				JOINT joint_4
				{
					OFFSET 5.544678 -0.099609 123.768066
					CHANNELS 3 Zrotation Yrotation Xrotation
					JOINT joint_5
					{
						OFFSET 41.981201 4.519775 84.257935
						CHANNELS 3 Zrotation Yrotation Xrotation
						End Site
						{
							OFFSET 0.000000 0.000000 0.000000
						}
					}
				}
				JOINT joint_6
				{
					OFFSET 3.940918 -26.976501 69.308105
					CHANNELS 3 Zrotation Yrotation Xrotation
					JOINT joint_7
					{
						OFFSET 4.776123 -152.592468 -16.842041
						CHANNELS 3 Zrotation Yrotation Xrotation
						JOINT joint_8
						{
							OFFSET 54.421875 -30.424072 -248.864014
							CHANNELS 3 Zrotation Yrotation Xrotation
							JOINT joint_9
							{
								OFFSET 42.120117 -33.387878 -236.524963
								CHANNELS 3 Zrotation Yrotation Xrotation
								End Site
								{
									OFFSET 0.000000 0.000000 0.000000
								}
							}
						}
					}
				}
				JOINT joint_10
				{
					OFFSET 2.312012 26.904114 69.425049
					CHANNELS 3 Zrotation Yrotation Xrotation
					JOINT joint_11
					{
						OFFSET 0.971436 152.197815 -20.626953
						CHANNELS 3 Zrotation Yrotation Xrotation
						JOINT joint_12
						{
							OFFSET 49.954102 28.991455 -249.970093
							CHANNELS 3 Zrotation Yrotation Xrotation
							JOINT joint_13
							{
								OFFSET 48.146973 19.598389 -236.919922
								CHANNELS 3 Zrotation Yrotation Xrotation
								End Site
								{
									OFFSET 0.000000 0.000000 0.000000
								}
							}
						}
					}
				}
			}
		}
	}
	JOINT joint_14
	{
		OFFSET 16.305664 -89.442932 -108.224976
		CHANNELS 3 Zrotation Yrotation Xrotation
		JOINT joint_15
		{
			OFFSET -22.282471 13.437134 -412.904968
			CHANNELS 3 Zrotation Yrotation Xrotation
			JOINT joint_16
			{
				OFFSET -45.426025 14.484802 -445.892029
				CHANNELS 3 Zrotation Yrotation Xrotation
				JOINT joint_17
				{
					OFFSET 173.389404 -9.944031 -76.473001
					CHANNELS 3 Zrotation Yrotation Xrotation
					End Site
					{
						OFFSET 0.000000 0.000000 0.000000
					}
				}
			}
		}
	}
	JOINT joint_18
	{
		OFFSET 13.392822 89.408875 -108.653992
		CHANNELS 3 Zrotation Yrotation Xrotation
		JOINT joint_19
		{
			OFFSET -29.032959 24.483521 -411.977966
			CHANNELS 3 Zrotation Yrotation Xrotation
			JOINT joint_20
			{
				OFFSET -30.530029 28.986328 -446.453018
				CHANNELS 3 Zrotation Yrotation Xrotation
				JOINT joint_21
				{
					OFFSET 170.330078 33.400757 -76.698997
					CHANNELS 3 Zrotation Yrotation Xrotation
					End Site
					{
						OFFSET 0.000000 0.000000 0.000000
					}
				}
			}
		}
	}
}
MOTION
Frames: 17
Frame Time: 0.016667
-2496.213867 954.622803 1054.156982 -5.941872 11.506677 0.816732 -2.583317 -5.964559 1.313201 -2.875448 0.955463 -0.350025 -2.973689 -1.065509 0.319420 -1.402585 -8.494260 3.135862 0.000000 0.000000 0.000000 -7.313974 -24.391252 -2.389078 -47.298897 -3.857404 2.151653 -171.001240 -30.399320 -122.331319 0.000000 0.000000 0.000000 1.552608 7.082261 6.168704 -34.907598 4.972472 18.001736 36.605945 15.414175 -175.138068 0.000000 0.000000 0.000000 0.654484 -22.328472 -15.156922 -2.903687 10.136852 3.022599 -3.097535 5.364547 -0.937644 0.000000 0.000000 0.000000 0.599868 -21.042502 7.855968 4.943289 41.079594 -10.484953 1.846763 1.309586 0.381807 0.000000 0.000000 0.000000 
-2485.230713 954.772034 1054.066040 -5.940245 11.720790 0.193804 -3.518444 -6.135651 1.711623 -4.243651 1.017476 -0.391402 -1.483943 -1.195743 0.250218 -9.698491 -8.429330 0.700831 0.000000 0.000000 0.000000 -7.309455 -24.942006 -1.988350 -46.380494 -3.659618 1.236163 -172.894974 -30.259541 -121.648784 0.000000 0.000000 0.000000 0.500428 67.052738 5.882517 -64.127826 87.861176 87.838623 -3.254656 -62.024722 167.323062 0.000000 0.000000 0.000000 1.149589 -21.455694 -15.063875 -3.337955 9.762684 3.727262 -3.502972 4.902401 -1.132655 0.000000 0.000000 0.000000 0.052234 -24.011400 10.868697 4.556587 47.130597 -13.026565 0.832760 3.529054 -0.520718 0.000000 0.000000 0.000000 
-2474.618652 955.944885 1054.272949 -6.118329 11.875254 -0.269579 -2.521353 -6.079926 1.613335 -3.436017 0.958222 -0.485752 -3.750400 -1.133009 0.413132 -1.353416 -8.329498 3.962100 0.000000 0.000000 0.000000 -7.261035 -23.933127 -1.572247 -41.659054 -4.122451 0.310358 -173.195995 -34.748666 -123.659317 0.000000 0.000000 0.000000 2.545411 23.964959 6.948208 -4.423493 -24.297565 12.160129 -45.025274 21.275761 163.979381 0.000000 0.000000 0.000000 1.517968 -20.670322 -14.952091 -3.611230 9.371508 4.095335 -3.759648 4.649825 -1.251312 0.000000 0.000000 0.000000 -0.403729 -26.563544 13.271930 4.003174 51.389999 -14.731166 -0.565425 4.909177 -1.374453 0.000000 0.000000 0.000000 
-2464.653564 958.287903 1055.047974 -6.400375 12.014343 -0.292335 -2.465729 -5.726165 1.177237 -3.525161 0.915952 -0.422398 -3.822466 -1.086249 0.359467 -1.410175 -8.633900 4.205843 0.000000 0.000000 0.000000 -7.267125 -21.614042 -0.983056 -33.514362 -5.070615 -1.025241 -171.625744 -41.636953 -129.559360 0.000000 0.000000 0.000000 3.005772 2.732301 6.557839 -49.705048 12.543919 17.129700 -27.936602 2.705071 147.505687 0.000000 0.000000 0.000000 1.731070 -20.160419 -15.036019 -3.726951 9.174032 3.940210 -3.900297 4.551385 -1.311785 0.000000 0.000000 0.000000 -0.712182 -28.785277 14.602160 3.362444 53.445653 -15.392866 -2.368190 4.144943 -1.888159 0.000000 0.000000 0.000000 
-2455.059326 961.654541 1056.120972 -6.738623 12.175995 -0.078517 -2.349763 -5.274664 0.456820 -3.507466 0.887596 -0.289971 -3.877937 -1.004928 0.277201 -1.387355 -9.106701 4.408281 0.000000 0.000000 0.000000 -7.312388 -19.521605 -0.265988 -25.922814 -5.831201 -2.721406 -169.713055 -46.319537 -136.568620 0.000000 0.000000 0.000000 3.626368 -17.535820 5.735670 -116.102271 25.246576 -13.479744 -30.210114 -40.588296 145.808119 0.000000 0.000000 0.000000 1.854715 -19.788336 -15.250106 -3.750544 8.980464 3.493566 -3.955935 4.615983 -1.327999 0.000000 0.000000 0.000000 -0.923071 -30.826154 15.281690 2.689856 53.981702 -15.464084 -4.310896 2.081713 -2.168020 0.000000 0.000000 0.000000 
-2445.150635 965.841858 1056.869995 -7.119322 12.260200 0.019868 -2.293989 -4.830524 -0.033241 -3.431508 0.861999 -0.186941 -3.883068 -0.919466 0.217405 -1.368539 -9.456266 4.491751 0.000000 0.000000 0.000000 -7.207040 -18.298754 0.255554 -21.030752 -6.174399 -4.185064 -168.713584 -48.721573 -141.699611 0.000000 0.000000 0.000000 4.357337 -29.428707 4.811821 -170.626189 4.788471 -24.394749 -18.220717 -61.859865 164.351751 0.000000 0.000000 0.000000 1.838642 -19.346008 -15.362912 -3.699690 8.755867 3.046618 -3.918674 4.779121 -1.300942 0.000000 0.000000 0.000000 -1.253741 -32.426574 15.694109 1.923441 53.159641 -15.281003 -6.294086 0.364613 -2.545272 0.000000 0.000000 0.000000 
-2434.717773 970.889771 1057.302002 -7.462096 12.223994 -0.095000 -2.416625 -4.463957 -0.085482 -3.365872 0.866840 -0.150116 -3.736599 -0.827052 0.199923 -1.346334 -9.565260 4.401594 0.000000 0.000000 0.000000 -6.807496 -17.312715 0.349964 -17.764874 -6.498533 -5.270391 -168.278272 -50.292149 -145.566414 0.000000 0.000000 0.000000 4.790855 -32.485441 4.043336 151.083667 -5.953925 -15.651060 0.888219 -69.926897 175.710286 0.000000 0.000000 0.000000 1.557505 -18.755683 -15.273864 -3.593044 8.458976 2.659439 -3.788864 5.129927 -1.226118 0.000000 0.000000 0.000000 -2.116143 -33.362033 15.985260 0.705713 50.107026 -14.959823 -8.727634 -0.500539 -3.286847 0.000000 0.000000 0.000000 
-2423.969482 976.758545 1057.409058 -7.930628 12.058138 -0.360815 -2.591563 -4.004589 0.144854 -3.249807 0.825763 -0.171772 -3.444562 -0.720683 0.203107 -1.270881 -9.551050 4.211787 0.000000 0.000000 0.000000 -6.239146 -16.422950 0.217485 -15.241014 -6.845496 -6.219897 -168.077155 -51.556923 -148.969135 0.000000 0.000000 0.000000 5.079943 -33.444911 3.307424 132.933922 -7.061614 -10.304473 20.429620 -72.823763 171.527350 0.000000 0.000000 0.000000 1.174847 -18.056256 -15.053854 -3.384238 8.122693 2.260972 -3.544571 5.606276 -1.096054 0.000000 0.000000 0.000000 -3.231893 -33.458813 16.038415 -0.796198 45.211945 -14.197842 -10.929750 -0.802516 -4.109527 0.000000 0.000000 0.000000 
-2412.849854 983.122009 1056.551025 -8.715062 11.805845 -0.807400 -2.669637 -3.407209 0.532175 -3.047437 0.677221 -0.229629 -3.060792 -0.617929 0.201805 -1.189740 -9.461251 4.032043 0.000000 0.000000 0.000000 -5.611557 -15.787277 0.105645 -13.470505 -7.188983 -7.216286 -168.137815 -52.697534 -151.817191 0.000000 0.000000 0.000000 5.183313 -33.785257 2.879457 120.544181 -6.148603 -7.297667 30.297963 -74.881953 171.712892 0.000000 0.000000 0.000000 1.026100 -17.292397 -14.822038 -3.041293 7.839777 1.967912 -3.179905 5.878242 -0.926980 0.000000 0.000000 0.000000 -3.821109 -33.099991 15.839365 -1.732427 41.429435 -13.035814 -11.900533 -0.895284 -4.526076 0.000000 0.000000 0.000000 
-2401.169189 990.008972 1054.098999 -9.707180 11.562993 -1.393432 -2.621961 -2.905091 0.970870 -2.798737 0.525375 -0.243695 -2.677521 -0.530380 0.186996 -1.105702 -9.240358 3.837731 0.000000 0.000000 0.000000 -4.866180 -15.394380 0.038456 -12.543345 -7.591856 -8.384722 -168.533690 -53.785274 -154.039539 0.000000 0.000000 0.000000 4.805972 -31.963701 3.023923 105.956748 -3.910786 -5.918799 31.969895 -76.309346 -177.969697 0.000000 0.000000 0.000000 1.171465 -16.342074 -14.648291 -2.628533 7.346034 1.780428 -2.738035 5.739744 -0.752593 0.000000 0.000000 0.000000 -3.484875 -32.987038 15.154462 -1.543264 40.802193 -11.638959 -11.624770 -1.410766 -4.325324 0.000000 0.000000 0.000000 
-2389.117432 997.390564 1050.680054 -10.793508 11.337965 -2.046274 -2.533143 -2.507294 1.422626 -2.534061 0.402212 -0.229475 -2.288199 -0.453662 0.172901 -1.030507 -8.940896 3.644672 0.000000 0.000000 0.000000 -4.036145 -15.122788 -0.019502 -12.062433 -8.048896 -9.645641 -169.144970 -54.963893 -155.906223 0.000000 0.000000 0.000000 4.253332 -29.379731 3.459314 91.403623 -2.001802 -6.295251 31.110174 -76.429494 -164.852878 0.000000 0.000000 0.000000 1.489038 -15.407593 -14.597901 -2.156325 6.906676 1.733136 -2.237198 5.375392 -0.569879 0.000000 0.000000 0.000000 -2.670639 -32.914120 14.124205 -0.683719 41.751050 -10.163600 -10.671830 -2.297619 -3.752899 0.000000 0.000000 0.000000 
-2377.197998 1004.855652 1047.537964 -11.889113 11.214261 -2.647973 -2.475933 -2.193221 1.744819 -2.310978 0.325359 -0.265327 -1.917563 -0.396526 0.177053 -1.034365 -8.765162 3.624640 0.000000 0.000000 0.000000 -3.339878 -14.946874 0.062758 -11.400128 -8.448517 -10.814747 -169.690982 -56.456933 -157.815625 0.000000 0.000000 0.000000 3.906371 -26.812445 3.969547 77.215028 -1.302682 -7.774664 28.618717 -75.301825 -150.576363 0.000000 0.000000 0.000000 1.970848 -15.145895 -14.884808 -1.602288 7.423470 2.033352 -1.699461 4.963492 -0.374735 0.000000 0.000000 0.000000 -1.940443 -32.532736 13.248853 0.269823 42.455293 -9.025262 -9.556812 -3.485516 -3.059070 0.000000 0.000000 0.000000 
-2365.381836 1012.511414 1044.587036 -13.118545 11.239749 -3.131170 -2.473783 -2.004045 1.780961 -2.159859 0.314354 -0.384043 -1.571372 -0.371631 0.241781 -1.192878 -8.829539 3.962831 0.000000 0.000000 0.000000 -2.850223 -15.020098 0.360351 -10.339264 -8.768889 -11.788201 -170.041398 -58.480968 -159.903676 0.000000 0.000000 0.000000 4.033941 -24.165818 4.638288 61.553306 -2.311494 -9.695263 23.837436 -71.054331 -133.487525 0.000000 0.000000 0.000000 2.828011 -15.891345 -15.836507 -0.787421 9.319449 2.981549 -0.945954 4.573241 -0.091843 0.000000 0.000000 0.000000 -1.465111 -31.647274 12.745260 1.200150 42.457314 -8.532928 -8.481304 -5.236262 -2.278408 0.000000 0.000000 0.000000 
-2353.698486 1020.250366 1041.912964 -14.337406 11.358997 -3.515186 -2.503773 -1.889388 1.569962 -2.059671 0.327099 -0.502396 -1.260512 -0.361461 0.337197 -1.434855 -8.995558 4.496410 0.000000 0.000000 0.000000 -2.520620 -15.331797 0.796933 -9.045543 -8.918087 -12.680702 -170.225129 -60.827200 -162.143864 0.000000 0.000000 0.000000 4.415204 -22.169795 5.283552 48.040390 -4.806065 -11.186123 17.446987 -59.834575 -118.400113 0.000000 0.000000 0.000000 3.857131 -17.283053 -17.173650 0.174797 12.097646 4.314593 -0.088316 4.338592 0.241377 0.000000 0.000000 0.000000 -1.089644 -30.440214 12.289713 2.198725 42.201305 -8.389589 -7.298211 -7.260783 -1.404830 0.000000 0.000000 0.000000 
-2342.749268 1027.337158 1041.012939 -15.025935 11.564558 -3.829063 -2.557498 -1.776081 1.299200 -2.007503 0.336525 -0.538285 -1.055149 -0.344023 0.372318 -1.609740 -9.102745 4.855935 0.000000 0.000000 0.000000 -2.373793 -15.571506 1.235933 -7.714429 -8.765357 -13.506579 -170.247572 -63.003508 -164.522469 0.000000 0.000000 0.000000 4.498206 -21.625758 5.463262 41.592972 -6.996422 -12.428684 13.281817 -49.179457 -111.025394 0.000000 0.000000 0.000000 4.404939 -18.994169 -18.163138 0.846428 15.363119 5.347474 0.367837 4.449802 0.441626 0.000000 0.000000 0.000000 -0.955312 -29.260414 11.644983 2.962259 41.431627 -8.100764 -6.107345 -8.811486 -0.630470 0.000000 0.000000 0.000000 
-2333.142578 1033.625854 1042.448975 -14.871637 11.984135 -4.114958 -2.675138 -1.686332 1.061119 -2.020045 0.363625 -0.446379 -0.985983 -0.306687 0.272404 -1.652660 -9.164797 4.872686 0.000000 0.000000 0.000000 -2.483843 -15.524667 1.645991 -6.446350 -8.258487 -14.241230 -170.140320 -64.647358 -167.079285 0.000000 0.000000 0.000000 3.856165 -21.846097 5.103281 38.681023 -8.820716 -13.378851 11.103072 -44.680246 -106.181142 0.000000 0.000000 0.000000 4.047137 -21.379845 -18.467998 0.980464 19.744225 5.656737 -0.035661 5.067352 0.356459 0.000000 0.000000 0.000000 -1.168815 -28.294388 10.665206 3.417091 39.899305 -7.309036 -4.767551 -9.834867 0.088913 0.000000 0.000000 0.000000 
-2324.270508 1039.261108 1045.657959 -14.173166 12.473526 -4.285280 -2.803689 -1.506177 0.709472 -2.083618 0.350111 -0.239351 -1.042557 -0.267087 0.110758 -1.633259 -9.196595 4.721652 0.000000 0.000000 0.000000 -2.755253 -15.317011 2.031160 -5.322102 -7.616729 -14.770097 -169.943787 -66.117688 -169.616369 0.000000 0.000000 0.000000 2.829910 -22.345953 4.394548 36.690333 -10.522009 -13.932311 9.528035 -43.353557 -101.527529 0.000000 0.000000 0.000000 3.118868 -24.010500 -18.403416 0.854573 24.489495 5.487238 -1.009788 6.335643 0.119960 0.000000 0.000000 0.000000 -1.582863 -27.293695 9.474777 3.644497 37.831300 -6.288594 -3.457468 -10.342816 0.692427 0.000000 0.000000 0.000000 
